<?xml version="1.0" encoding="UTF-8" standalone="no"?>
<!DOCTYPE svg PUBLIC "-//W3C//DTD SVG 1.1//EN"
 "http://www.w3.org/Graphics/SVG/1.1/DTD/svg11.dtd">
<!-- Generated by graphviz version 2.43.0 (0)
 -->
<!-- Title: G Pages: 1 -->
<svg width="928pt" height="458pt"
 viewBox="0.00 0.00 928.00 458.00" xmlns="http://www.w3.org/2000/svg" xmlns:xlink="http://www.w3.org/1999/xlink">
<g id="graph0" class="graph" transform="scale(1 1) rotate(0) translate(4 454)">
<title>G</title>
<polygon fill="white" stroke="transparent" points="-4,4 -4,-454 924,-454 924,4 -4,4"/>
<g id="clust1" class="cluster">
<title>cluster_root</title>
<g id="a_clust1"><a xlink:title="eventq_index=0&#10;full_system=false&#10;sim_quantum=0&#10;time_sync_enable=false&#10;time_sync_period=100000000000&#10;time_sync_spin_threshold=100000000">
<path fill="#bab6ae" stroke="#000000" d="M20,-8C20,-8 900,-8 900,-8 906,-8 912,-14 912,-20 912,-20 912,-430 912,-430 912,-436 906,-442 900,-442 900,-442 20,-442 20,-442 14,-442 8,-436 8,-430 8,-430 8,-20 8,-20 8,-14 14,-8 20,-8"/>
<text text-anchor="middle" x="460" y="-426.8" font-family="Arial" font-size="14.00" fill="#000000">root </text>
<text text-anchor="middle" x="460" y="-411.8" font-family="Arial" font-size="14.00" fill="#000000">: Root</text>
</a>
</g>
</g>
<g id="clust2" class="cluster">
<title>cluster_system</title>
<g id="a_clust2"><a xlink:title="auto_unlink_shared_backstore=false&#10;cache_line_size=64&#10;eventq_index=0&#10;exit_on_work_items=false&#10;init_param=0&#10;m5ops_base=0&#10;mem_mode=timing&#10;mem_ranges=0:8589934592&#10;memories=system.global_mem.mem_ctrl.dram&#10;mmap_using_noreserve=false&#10;multi_thread=false&#10;&#10;um_work_ids=16&#10;&#13;eadfile=&#10;&#13;edirect_paths=&#10;shadow_rom_ranges=&#10;shared_backstore=&#10;symbolfile=&#10;thermal_components=&#10;thermal_model=Null&#10;work_begin_ckpt_count=0&#10;work_begin_cpu_id_exit=&#45;1&#10;work_begin_exit_count=0&#10;work_cpus_ckpt_count=0&#10;work_end_ckpt_count=0&#10;work_end_exit_count=0&#10;work_item_id=&#45;1&#10;workload=system.workload">
<path fill="#e4e7eb" stroke="#000000" d="M28,-16C28,-16 892,-16 892,-16 898,-16 904,-22 904,-28 904,-28 904,-384 904,-384 904,-390 898,-396 892,-396 892,-396 28,-396 28,-396 22,-396 16,-390 16,-384 16,-384 16,-28 16,-28 16,-22 22,-16 28,-16"/>
<text text-anchor="middle" x="460" y="-380.8" font-family="Arial" font-size="14.00" fill="#000000">system </text>
<text text-anchor="middle" x="460" y="-365.8" font-family="Arial" font-size="14.00" fill="#000000">: System</text>
</a>
</g>
</g>
<g id="clust7" class="cluster">
<title>cluster_system_global_mem</title>
<g id="a_clust7"><a xlink:title="eventq_index=0&#10;thermal_domain=Null">
<path fill="#bab6ae" stroke="#000000" d="M380,-24C380,-24 496,-24 496,-24 502,-24 508,-30 508,-36 508,-36 508,-156 508,-156 508,-162 502,-168 496,-168 496,-168 380,-168 380,-168 374,-168 368,-162 368,-156 368,-156 368,-36 368,-36 368,-30 374,-24 380,-24"/>
<text text-anchor="middle" x="438" y="-152.8" font-family="Arial" font-size="14.00" fill="#000000">global_mem </text>
<text text-anchor="middle" x="438" y="-137.8" font-family="Arial" font-size="14.00" fill="#000000">: ChanneledMemory</text>
</a>
</g>
</g>
<g id="clust8" class="cluster">
<title>cluster_system_global_mem_mem_ctrl</title>
<g id="a_clust8"><a xlink:title="clk_domain=system.clk_domain&#10;command_window=10000&#10;disable_sanity_check=false&#10;dram=system.global_mem.mem_ctrl.dram&#10;eventq_index=0&#10;mem_sched_policy=frfcfs&#10;min_reads_per_switch=16&#10;min_writes_per_switch=16&#10;power_model=&#10;power_state=system.global_mem.mem_ctrl.power_state&#10;qos_policy=Null&#10;qos_priorities=1&#10;qos_priority_escalation=false&#10;qos_q_policy=fifo&#10;qos_requestors= &#160;&#160;&#160;&#160;&#160;&#160;&#160;&#160;&#160;&#160;&#160;&#160;&#160;&#160;&#10;qos_syncro_scheduler=false&#10;qos_turnaround_policy=Null&#10;static_backend_latency=10000&#10;static_frontend_latency=10000&#10;system=system&#10;write_high_thresh_perc=85&#10;write_low_thresh_perc=50">
<path fill="#9f9c95" stroke="#000000" d="M388,-32C388,-32 441,-32 441,-32 447,-32 453,-38 453,-44 453,-44 453,-110 453,-110 453,-116 447,-122 441,-122 441,-122 388,-122 388,-122 382,-122 376,-116 376,-110 376,-110 376,-44 376,-44 376,-38 382,-32 388,-32"/>
<text text-anchor="middle" x="414.5" y="-106.8" font-family="Arial" font-size="14.00" fill="#000000">mem_ctrl </text>
<text text-anchor="middle" x="414.5" y="-91.8" font-family="Arial" font-size="14.00" fill="#000000">: MemCtrl</text>
</a>
</g>
</g>
<g id="clust12" class="cluster">
<title>cluster_system_global_membus</title>
<g id="a_clust12"><a xlink:title="clk_domain=system.clk_domain&#10;eventq_index=0&#10;forward_latency=4&#10;frontend_latency=3&#10;header_latency=1&#10;max_outstanding_snoops=512&#10;max_routing_table_size=512&#10;point_of_coherency=true&#10;point_of_unification=true&#10;power_model=&#10;power_state=system.global_membus.power_state&#10;&#13;esponse_latency=2&#10;snoop_filter=system.global_membus.snoop_filter&#10;snoop_response_latency=4&#10;system=system&#10;use_default_range=false&#10;width=16">
<path fill="#6f798c" stroke="#000000" d="M36,-24C36,-24 348,-24 348,-24 354,-24 360,-30 360,-36 360,-36 360,-254 360,-254 360,-260 354,-266 348,-266 348,-266 36,-266 36,-266 30,-266 24,-260 24,-254 24,-254 24,-36 24,-36 24,-30 30,-24 36,-24"/>
<text text-anchor="middle" x="192" y="-250.8" font-family="Arial" font-size="14.00" fill="#000000">global_membus </text>
<text text-anchor="middle" x="192" y="-235.8" font-family="Arial" font-size="14.00" fill="#000000">: SystemXBar</text>
</a>
</g>
</g>
<g id="clust15" class="cluster">
<title>cluster_system_global_membus_badaddr_responder</title>
<g id="a_clust15"><a xlink:title="clk_domain=system.clk_domain&#10;eventq_index=0&#10;fake_mem=false&#10;pio_addr=0&#10;pio_latency=100000&#10;pio_size=8&#10;power_model=&#10;power_state=system.global_membus.badaddr_responder.power_state&#10;&#13;et_bad_addr=true&#10;&#13;et_data16=65535&#10;&#13;et_data32=4294967295&#10;&#13;et_data64=18446744073709551615&#10;&#13;et_data8=255&#10;system=system&#10;update_data=false&#10;warn_access=">
<path fill="#c7a793" stroke="#000000" d="M44,-32C44,-32 158,-32 158,-32 164,-32 170,-38 170,-44 170,-44 170,-110 170,-110 170,-116 164,-122 158,-122 158,-122 44,-122 44,-122 38,-122 32,-116 32,-110 32,-110 32,-44 32,-44 32,-38 38,-32 44,-32"/>
<text text-anchor="middle" x="101" y="-106.8" font-family="Arial" font-size="14.00" fill="#000000">badaddr_responder </text>
<text text-anchor="middle" x="101" y="-91.8" font-family="Arial" font-size="14.00" fill="#000000">: BadAddr</text>
</a>
</g>
</g>
<g id="clust17" class="cluster">
<title>cluster_system_simplePEs0</title>
<g id="a_clust17"><a xlink:title="clk_domain=system.clk_domain&#10;cpu_id=&#45;1&#10;eventq_index=0&#10;&#10;umThreads=1&#10;power_model=&#10;power_state=system.simplePEs0.power_state&#10;socket_id=0&#10;system=system">
<path fill="#bab6ae" stroke="#000000" d="M812,-176C812,-176 884,-176 884,-176 890,-176 896,-182 896,-188 896,-188 896,-254 896,-254 896,-260 890,-266 884,-266 884,-266 812,-266 812,-266 806,-266 800,-260 800,-254 800,-254 800,-188 800,-188 800,-182 806,-176 812,-176"/>
<text text-anchor="middle" x="848" y="-250.8" font-family="Arial" font-size="14.00" fill="#000000">simplePEs0 </text>
<text text-anchor="middle" x="848" y="-235.8" font-family="Arial" font-size="14.00" fill="#000000">: SimplePE</text>
</a>
</g>
</g>
<g id="clust19" class="cluster">
<title>cluster_system_simplePEs1</title>
<g id="a_clust19"><a xlink:title="clk_domain=system.clk_domain&#10;cpu_id=&#45;1&#10;eventq_index=0&#10;&#10;umThreads=1&#10;power_model=&#10;power_state=system.simplePEs1.power_state&#10;socket_id=0&#10;system=system">
<path fill="#bab6ae" stroke="#000000" d="M622,-176C622,-176 694,-176 694,-176 700,-176 706,-182 706,-188 706,-188 706,-254 706,-254 706,-260 700,-266 694,-266 694,-266 622,-266 622,-266 616,-266 610,-260 610,-254 610,-254 610,-188 610,-188 610,-182 616,-176 622,-176"/>
<text text-anchor="middle" x="658" y="-250.8" font-family="Arial" font-size="14.00" fill="#000000">simplePEs1 </text>
<text text-anchor="middle" x="658" y="-235.8" font-family="Arial" font-size="14.00" fill="#000000">: SimplePE</text>
</a>
</g>
</g>
<g id="clust21" class="cluster">
<title>cluster_system_caches0</title>
<g id="a_clust21"><a xlink:title="addr_ranges=0:18446744073709551615&#10;assoc=8&#10;clk_domain=system.clk_domain&#10;clusivity=mostly_incl&#10;compressor=Null&#10;data_latency=1&#10;demand_mshr_reserve=1&#10;eventq_index=0&#10;is_read_only=false&#10;max_miss_count=0&#10;move_contractions=true&#10;mshrs=16&#10;power_model=&#10;power_state=system.caches0.power_state&#10;prefetch_on_access=false&#10;prefetch_on_pf_hit=false&#10;prefetcher=system.caches0.prefetcher&#10;&#13;eplace_expansions=true&#10;&#13;eplacement_policy=system.caches0.replacement_policy&#10;&#13;esponse_latency=1&#10;sequential_access=false&#10;size=65536&#10;system=system&#10;tag_latency=1&#10;tags=system.caches0.tags&#10;tgts_per_mshr=20&#10;warmup_percentage=0&#10;write_allocator=Null&#10;write_buffers=8&#10;writeback_clean=false">
<path fill="#bab6ae" stroke="#000000" d="M722,-32C722,-32 884,-32 884,-32 890,-32 896,-38 896,-44 896,-44 896,-110 896,-110 896,-116 890,-122 884,-122 884,-122 722,-122 722,-122 716,-122 710,-116 710,-110 710,-110 710,-44 710,-44 710,-38 716,-32 722,-32"/>
<text text-anchor="middle" x="803" y="-106.8" font-family="Arial" font-size="14.00" fill="#000000">caches0 </text>
<text text-anchor="middle" x="803" y="-91.8" font-family="Arial" font-size="14.00" fill="#000000">: L1DCache</text>
</a>
</g>
</g>
<g id="clust31" class="cluster">
<title>cluster_system_caches1</title>
<g id="a_clust31"><a xlink:title="addr_ranges=0:18446744073709551615&#10;assoc=8&#10;clk_domain=system.clk_domain&#10;clusivity=mostly_incl&#10;compressor=Null&#10;data_latency=1&#10;demand_mshr_reserve=1&#10;eventq_index=0&#10;is_read_only=false&#10;max_miss_count=0&#10;move_contractions=true&#10;mshrs=16&#10;power_model=&#10;power_state=system.caches1.power_state&#10;prefetch_on_access=false&#10;prefetch_on_pf_hit=false&#10;prefetcher=system.caches1.prefetcher&#10;&#13;eplace_expansions=true&#10;&#13;eplacement_policy=system.caches1.replacement_policy&#10;&#13;esponse_latency=1&#10;sequential_access=false&#10;size=65536&#10;system=system&#10;tag_latency=1&#10;tags=system.caches1.tags&#10;tgts_per_mshr=20&#10;warmup_percentage=0&#10;write_allocator=Null&#10;write_buffers=8&#10;writeback_clean=false">
<path fill="#bab6ae" stroke="#000000" d="M528,-32C528,-32 690,-32 690,-32 696,-32 702,-38 702,-44 702,-44 702,-110 702,-110 702,-116 696,-122 690,-122 690,-122 528,-122 528,-122 522,-122 516,-116 516,-110 516,-110 516,-44 516,-44 516,-38 522,-32 528,-32"/>
<text text-anchor="middle" x="609" y="-106.8" font-family="Arial" font-size="14.00" fill="#000000">caches1 </text>
<text text-anchor="middle" x="609" y="-91.8" font-family="Arial" font-size="14.00" fill="#000000">: L1DCache</text>
</a>
</g>
</g>
<!-- system_system_port -->
<g id="node1" class="node">
<title>system_system_port</title>
<path fill="#b6b8bc" stroke="#000000" d="M331.5,-350C331.5,-350 264.5,-350 264.5,-350 258.5,-350 252.5,-344 252.5,-338 252.5,-338 252.5,-326 252.5,-326 252.5,-320 258.5,-314 264.5,-314 264.5,-314 331.5,-314 331.5,-314 337.5,-314 343.5,-320 343.5,-326 343.5,-326 343.5,-338 343.5,-338 343.5,-344 337.5,-350 331.5,-350"/>
<text text-anchor="middle" x="298" y="-328.3" font-family="Arial" font-size="14.00" fill="#000000">system_port</text>
</g>
<!-- system_global_membus_cpu_side_ports -->
<g id="node3" class="node">
<title>system_global_membus_cpu_side_ports</title>
<path fill="#586070" stroke="#000000" d="M340,-220C340,-220 256,-220 256,-220 250,-220 244,-214 244,-208 244,-208 244,-196 244,-196 244,-190 250,-184 256,-184 256,-184 340,-184 340,-184 346,-184 352,-190 352,-196 352,-196 352,-208 352,-208 352,-214 346,-220 340,-220"/>
<text text-anchor="middle" x="298" y="-198.3" font-family="Arial" font-size="14.00" fill="#000000">cpu_side_ports</text>
</g>
<!-- system_system_port&#45;&gt;system_global_membus_cpu_side_ports -->
<g id="edge1" class="edge">
<title>system_system_port&#45;&gt;system_global_membus_cpu_side_ports</title>
<path fill="none" stroke="black" d="M298,-313.74C298,-292.36 298,-255.69 298,-230.44"/>
<polygon fill="black" stroke="black" points="301.5,-230.4 298,-220.4 294.5,-230.4 301.5,-230.4"/>
</g>
<!-- system_global_mem_mem_ctrl_port -->
<g id="node2" class="node">
<title>system_global_mem_mem_ctrl_port</title>
<path fill="#7f7c77" stroke="#000000" d="M426,-76C426,-76 396,-76 396,-76 390,-76 384,-70 384,-64 384,-64 384,-52 384,-52 384,-46 390,-40 396,-40 396,-40 426,-40 426,-40 432,-40 438,-46 438,-52 438,-52 438,-64 438,-64 438,-70 432,-76 426,-76"/>
<text text-anchor="middle" x="411" y="-54.3" font-family="Arial" font-size="14.00" fill="#000000">port</text>
</g>
<!-- system_caches0_mem_side -->
<g id="node10" class="node">
<title>system_caches0_mem_side</title>
<path fill="#94918b" stroke="#000000" d="M786,-76C786,-76 730,-76 730,-76 724,-76 718,-70 718,-64 718,-64 718,-52 718,-52 718,-46 724,-40 730,-40 730,-40 786,-40 786,-40 792,-40 798,-46 798,-52 798,-52 798,-64 798,-64 798,-70 792,-76 786,-76"/>
<text text-anchor="middle" x="758" y="-54.3" font-family="Arial" font-size="14.00" fill="#000000">mem_side</text>
</g>
<!-- system_global_membus_cpu_side_ports&#45;&gt;system_caches0_mem_side -->
<g id="edge2" class="edge">
<title>system_global_membus_cpu_side_ports&#45;&gt;system_caches0_mem_side</title>
<path fill="none" stroke="black" d="M362.32,-195.76C424.63,-190.68 521.79,-182.79 606,-176 617.11,-175.1 696.82,-174.32 706,-168 737.26,-146.49 750.31,-100.91 755.28,-76.05"/>
<polygon fill="black" stroke="black" points="361.93,-192.28 352.24,-196.58 362.5,-199.25 361.93,-192.28"/>
</g>
<!-- system_caches1_mem_side -->
<g id="node12" class="node">
<title>system_caches1_mem_side</title>
<path fill="#94918b" stroke="#000000" d="M592,-76C592,-76 536,-76 536,-76 530,-76 524,-70 524,-64 524,-64 524,-52 524,-52 524,-46 530,-40 536,-40 536,-40 592,-40 592,-40 598,-40 604,-46 604,-52 604,-52 604,-64 604,-64 604,-70 598,-76 592,-76"/>
<text text-anchor="middle" x="564" y="-54.3" font-family="Arial" font-size="14.00" fill="#000000">mem_side</text>
</g>
<!-- system_global_membus_cpu_side_ports&#45;&gt;system_caches1_mem_side -->
<g id="edge3" class="edge">
<title>system_global_membus_cpu_side_ports&#45;&gt;system_caches1_mem_side</title>
<path fill="none" stroke="black" d="M362.27,-196.33C392.47,-192.03 428.1,-183.78 457,-168 498.9,-145.13 534.78,-100.53 552.39,-76.07"/>
<polygon fill="black" stroke="black" points="361.72,-192.88 352.26,-197.65 362.63,-199.82 361.72,-192.88"/>
</g>
<!-- system_global_membus_mem_side_ports -->
<g id="node4" class="node">
<title>system_global_membus_mem_side_ports</title>
<path fill="#586070" stroke="#000000" d="M214,-220C214,-220 120,-220 120,-220 114,-220 108,-214 108,-208 108,-208 108,-196 108,-196 108,-190 114,-184 120,-184 120,-184 214,-184 214,-184 220,-184 226,-190 226,-196 226,-196 226,-208 226,-208 226,-214 220,-220 214,-220"/>
<text text-anchor="middle" x="167" y="-198.3" font-family="Arial" font-size="14.00" fill="#000000">mem_side_ports</text>
</g>
<!-- system_global_membus_mem_side_ports&#45;&gt;system_global_mem_mem_ctrl_port -->
<g id="edge4" class="edge">
<title>system_global_membus_mem_side_ports&#45;&gt;system_global_mem_mem_ctrl_port</title>
<path fill="none" stroke="black" d="M196.43,-183.87C241.2,-157.82 326.33,-108.28 374.82,-80.06"/>
<polygon fill="black" stroke="black" points="376.83,-82.94 383.71,-74.88 373.31,-76.89 376.83,-82.94"/>
</g>
<!-- system_global_membus_default -->
<g id="node5" class="node">
<title>system_global_membus_default</title>
<path fill="#586070" stroke="#000000" d="M77.5,-220C77.5,-220 44.5,-220 44.5,-220 38.5,-220 32.5,-214 32.5,-208 32.5,-208 32.5,-196 32.5,-196 32.5,-190 38.5,-184 44.5,-184 44.5,-184 77.5,-184 77.5,-184 83.5,-184 89.5,-190 89.5,-196 89.5,-196 89.5,-208 89.5,-208 89.5,-214 83.5,-220 77.5,-220"/>
<text text-anchor="middle" x="61" y="-198.3" font-family="Arial" font-size="14.00" fill="#000000">default</text>
</g>
<!-- system_global_membus_badaddr_responder_pio -->
<g id="node6" class="node">
<title>system_global_membus_badaddr_responder_pio</title>
<path fill="#9f8575" stroke="#000000" d="M82,-76C82,-76 52,-76 52,-76 46,-76 40,-70 40,-64 40,-64 40,-52 40,-52 40,-46 46,-40 52,-40 52,-40 82,-40 82,-40 88,-40 94,-46 94,-52 94,-52 94,-64 94,-64 94,-70 88,-76 82,-76"/>
<text text-anchor="middle" x="67" y="-54.3" font-family="Arial" font-size="14.00" fill="#000000">pio</text>
</g>
<!-- system_global_membus_default&#45;&gt;system_global_membus_badaddr_responder_pio -->
<g id="edge5" class="edge">
<title>system_global_membus_default&#45;&gt;system_global_membus_badaddr_responder_pio</title>
<path fill="none" stroke="black" d="M61.72,-183.87C62.75,-159.67 64.62,-115.21 65.84,-86.39"/>
<polygon fill="black" stroke="black" points="69.35,-86.33 66.27,-76.19 62.35,-86.03 69.35,-86.33"/>
</g>
<!-- system_simplePEs0_mem_side -->
<g id="node7" class="node">
<title>system_simplePEs0_mem_side</title>
<path fill="#94918b" stroke="#000000" d="M876,-220C876,-220 820,-220 820,-220 814,-220 808,-214 808,-208 808,-208 808,-196 808,-196 808,-190 814,-184 820,-184 820,-184 876,-184 876,-184 882,-184 888,-190 888,-196 888,-196 888,-208 888,-208 888,-214 882,-220 876,-220"/>
<text text-anchor="middle" x="848" y="-198.3" font-family="Arial" font-size="14.00" fill="#000000">mem_side</text>
</g>
<!-- system_caches0_cpu_side -->
<g id="node9" class="node">
<title>system_caches0_cpu_side</title>
<path fill="#94918b" stroke="#000000" d="M875.5,-76C875.5,-76 828.5,-76 828.5,-76 822.5,-76 816.5,-70 816.5,-64 816.5,-64 816.5,-52 816.5,-52 816.5,-46 822.5,-40 828.5,-40 828.5,-40 875.5,-40 875.5,-40 881.5,-40 887.5,-46 887.5,-52 887.5,-52 887.5,-64 887.5,-64 887.5,-70 881.5,-76 875.5,-76"/>
<text text-anchor="middle" x="852" y="-54.3" font-family="Arial" font-size="14.00" fill="#000000">cpu_side</text>
</g>
<!-- system_simplePEs0_mem_side&#45;&gt;system_caches0_cpu_side -->
<g id="edge6" class="edge">
<title>system_simplePEs0_mem_side&#45;&gt;system_caches0_cpu_side</title>
<path fill="none" stroke="black" d="M848.48,-183.87C849.16,-159.67 850.42,-115.21 851.23,-86.39"/>
<polygon fill="black" stroke="black" points="854.73,-86.28 851.52,-76.19 847.74,-86.09 854.73,-86.28"/>
</g>
<!-- system_simplePEs1_mem_side -->
<g id="node8" class="node">
<title>system_simplePEs1_mem_side</title>
<path fill="#94918b" stroke="#000000" d="M686,-220C686,-220 630,-220 630,-220 624,-220 618,-214 618,-208 618,-208 618,-196 618,-196 618,-190 624,-184 630,-184 630,-184 686,-184 686,-184 692,-184 698,-190 698,-196 698,-196 698,-208 698,-208 698,-214 692,-220 686,-220"/>
<text text-anchor="middle" x="658" y="-198.3" font-family="Arial" font-size="14.00" fill="#000000">mem_side</text>
</g>
<!-- system_caches1_cpu_side -->
<g id="node11" class="node">
<title>system_caches1_cpu_side</title>
<path fill="#94918b" stroke="#000000" d="M681.5,-76C681.5,-76 634.5,-76 634.5,-76 628.5,-76 622.5,-70 622.5,-64 622.5,-64 622.5,-52 622.5,-52 622.5,-46 628.5,-40 634.5,-40 634.5,-40 681.5,-40 681.5,-40 687.5,-40 693.5,-46 693.5,-52 693.5,-52 693.5,-64 693.5,-64 693.5,-70 687.5,-76 681.5,-76"/>
<text text-anchor="middle" x="658" y="-54.3" font-family="Arial" font-size="14.00" fill="#000000">cpu_side</text>
</g>
<!-- system_simplePEs1_mem_side&#45;&gt;system_caches1_cpu_side -->
<g id="edge7" class="edge">
<title>system_simplePEs1_mem_side&#45;&gt;system_caches1_cpu_side</title>
<path fill="none" stroke="black" d="M658,-183.87C658,-159.67 658,-115.21 658,-86.39"/>
<polygon fill="black" stroke="black" points="661.5,-86.19 658,-76.19 654.5,-86.19 661.5,-86.19"/>
</g>
</g>
</svg>
